<?xml version="1.0" encoding="UTF-8"?>
<svg id="Lager_1" xmlns="http://www.w3.org/2000/svg" version="1.1" viewBox="0 0 200 200">
  <!-- Generator: Adobe Illustrator 29.2.1, SVG Export Plug-In . SVG Version: 2.1.0 Build 116)  -->
  <defs>
    <style>
      .st0 {
        fill: #fff;
        stroke-width: 3px;
      }

      .st0, .st1 {
        stroke: #1d1d1b;
        stroke-miterlimit: 10;
      }

      .st1 {
        fill: #1d1d1b;
      }
    </style>
  </defs>
  <path class="st0" d="M14.5,195.8C5.9,193.5-4.6,54.1,67.6,13.4c5.4-3,33.9-18.3,63.2-6.8,72.2,28.2,68.4,187.4,56.8,191-4.8,1.5-13.9-22.6-23.8-20-7.5,1.9-7,16.8-14.6,18.7-9.6,2.4-16.4-19.3-28.6-18.4-11,.8-14.1,18.8-23.3,18-9-.8-10.4-18.5-19.4-19.4-9.8-.9-14.6,19.2-24.5,18.3-9-.8-10.9-18-19.6-18.7-9.9-.8-15.6,20.6-19.2,19.6Z"/>
  <path class="st1" d="M71.9,68.7c-3.7,3.3-3.8,10.2-1.8,14.7,2,4.2,6.3,7.1,9.9,5.5,4.6-2.1,6.7-10.8,3.8-16.5-2.4-4.7-8.1-7.1-12-3.7Z"/>
  <path class="st1" d="M131.1,67.4c-3.5,1.3-5.3,6.7-5,10.8.5,6.8,6.8,12.7,11,10.8,3.4-1.6,5.1-8.1,3.8-13.1-1.3-5.1-5.8-10-9.9-8.5Z"/>
  <path class="st1" d="M100,96.8c-4.1,6.7-4.2,20.9-1.9,30,2.1,8.5,6.8,14.6,10.8,11.2,5.1-4.2,7.3-22.1,4.1-33.7-2.6-9.6-8.8-14.5-13-7.5Z"/>
</svg>